# xmcd
#
# Track frame offsets:
#	150
#	13377
#	23580
#	34182
#	45930
#	56155
#	71915
#	83550
#	92970
#	105240
#	118635
#	130662
#	147430
#	158590
#	174610
#
# Disc length: 2478
#
# Revision: 1
# Processed by: cddbd v1.5.1PL0 Copyright (c) Steve Scherf et al.
# Submitted via: ExactAudioCopy v0.90b4
# Normalized: r0:DSETVAR1,TDELIM( - )
#
DISCID=c109ac0f
DTITLE=Various Artist - Mega Country CD2
DYEAR=1900
DGENRE=Country
TTITLE0=Don Williams - Where do I go from here?
TTITLE1=Carl Perkins - Daddy sang bass
TTITLE2=Patsy Cline - Honky tonk merry go round
TTITLE3=Jim Reeves - Mexican Joe
TTITLE4=Billie Jo Spears - It makes no difference now
TTITLE5=Charly Pride - Let me live in the light of his love
TTITLE6=Brenda Lee - Silver threads and golden needles
TTITLE7=Dave Dudley - Six days on the road
TTITLE8=Anne Murray - All the tim
TTITLE9=George Jones - Almost persuaded
TTITLE10=Johnny Cash - Sixteen tons
TTITLE11=Ferlin Husky - For the good times
TTITLE12=Jo Anne Houston - The race is on
TTITLE13=Jerry Lee Lewis - She even woke me up to say goodbye
TTITLE14=Roy Drusky - Blue eyes crying in the rain
EXTD=
EXTT0=
EXTT1=
EXTT2=
EXTT3=
EXTT4=
EXTT5=
EXTT6=
EXTT7=
EXTT8=
EXTT9=
EXTT10=
EXTT11=
EXTT12=
EXTT13=
EXTT14=
PLAYORDER=
